<svg width="326" height="119" viewBox="0 0 326 119" fill="none" xmlns="http://www.w3.org/2000/svg">
<g clip-path="url(#clip0_922_4434)">
<path fill-rule="evenodd" clip-rule="evenodd" d="M166.545 109.691C51.1107 99.3969 13.8601 18.3725 11.0443 -13.5887L20.956 -14.4113C23.391 13.2283 57.2503 89.9596 167.378 99.7806L166.545 109.691ZM360.851 24.3298C344.482 49.7432 289.879 110.96 189.026 110.732L188.997 100.782C285.358 101 337.236 42.5747 352.477 18.9118L360.851 24.3298Z" fill="white" fill-opacity="0.8"/>
</g>
<g clip-path="url(#clip1_922_4434)">
<path fill-rule="evenodd" clip-rule="evenodd" d="M166.545 109.691C51.1107 99.397 13.8601 18.3726 11.0443 -13.5886L20.956 -14.4111C23.391 13.2284 57.2503 89.9597 167.378 99.7808L166.545 109.691ZM360.851 24.3299C344.482 49.7433 289.879 110.96 189.026 110.732L188.997 100.782C285.358 101 337.236 42.5748 352.477 18.9119L360.851 24.3299Z" fill="white"/>
</g>
<defs>
<clipPath id="clip0_922_4434">
<rect width="180" height="119" fill="white"/>
</clipPath>
<clipPath id="clip1_922_4434">
<rect width="146" height="119" fill="white" transform="translate(180)"/>
</clipPath>
</defs>
</svg>
